<svg width="211" height="19" viewBox="0 0 211 19" fill="none" xmlns="http://www.w3.org/2000/svg">
<path d="M4.51812 18V11.424H10.8301V8.28H4.51812V3.936H12.0061V0.767999H0.870117V18H4.51812Z" fill="white"/>
<path d="M22.6227 11.52L28.7667 0.767999H25.0947L20.9187 8.184L16.8147 0.767999H12.8787L18.9747 11.52V18H22.6227V11.52Z" fill="white"/>
<path d="M34.3306 18V11.904H36.6106L40.4986 18H44.8426L40.4026 11.352C42.8506 10.536 44.2906 8.688 44.2906 6.36C44.2906 2.784 41.7706 0.767999 37.4266 0.767999H30.6826V18H34.3306ZM34.3306 3.792H37.2586C39.4666 3.792 40.6426 4.656 40.6426 6.36C40.6426 8.04 39.4666 8.904 37.2586 8.904H34.3306V3.792Z" fill="white"/>
<path d="M50.7603 18V11.904H53.0403L56.9283 18H61.2723L56.8323 11.352C59.2803 10.536 60.7203 8.688 60.7203 6.36C60.7203 2.784 58.2003 0.767999 53.8563 0.767999H47.1123V18H50.7603ZM50.7603 3.792H53.6883C55.8963 3.792 57.0723 4.656 57.0723 6.36C57.0723 8.04 55.8963 8.904 53.6883 8.904H50.7603V3.792Z" fill="white"/>
<path d="M75.134 14.832H67.19V10.704H74.246V7.56H67.19V3.936H74.966V0.767999H63.542V18H75.134V14.832Z" fill="white"/>
<path d="M90.7957 18H93.8437L98.4037 6.456V18H101.716V0.767999H97.3477L92.3317 13.536L87.3397 0.767999H82.9717V18H86.2837V6.552L90.7957 18Z" fill="white"/>
<path d="M116.757 18H120.669L114.237 0.767999H110.253L103.773 18H107.445L108.765 14.304H115.461L116.757 18ZM112.149 4.752L114.453 11.4H109.797L112.149 4.752Z" fill="white"/>
<path d="M129.633 18.36C135.129 18.36 138.537 14.328 138.321 8.712H129.441V11.616H134.433C133.953 13.752 132.345 15.264 129.801 15.264C126.345 15.264 124.497 12.72 124.497 9.408C124.497 5.712 126.609 3.672 129.393 3.672C131.697 3.672 133.281 4.992 133.809 6.744H138.105C136.977 3 133.857 0.407999 129.489 0.407999C124.449 0.407999 120.753 4.224 120.753 9.312C120.753 14.64 124.641 18.36 129.633 18.36Z" fill="white"/>
<path d="M151.468 18H155.38L148.948 0.767999H144.964L138.484 18H142.156L143.476 14.304H150.172L151.468 18ZM146.86 4.752L149.164 11.4H144.508L146.86 4.752Z" fill="white"/>
<path d="M170.271 18V14.856H161.127L169.983 3.696V0.767999H156.711V3.912H165.495L156.687 15.12V18H170.271Z" fill="white"/>
<path d="M176.573 18V0.767999H172.925V18H176.573Z" fill="white"/>
<path d="M191.329 18H194.905V0.767999H191.545V12.192L184.033 0.767999H180.097V18H183.433V5.976L191.329 18Z" fill="white"/>
<path d="M210.04 14.832H202.096V10.704H209.152V7.56H202.096V3.936H209.872V0.767999H198.448V18H210.04V14.832Z" fill="white"/>
</svg>
